PathFileType	4	(X/Y/Z)	subject01_walk1.trc																																																																																																																									
DataRate	CameraRate	NumFrames	NumMarkers	Units	OrigDataRate	OrigDataStartFrame	OrigNumFrames																																																																																																																					
60	60	4	41	mm	60	1	151																																																																																																																					
Frame#	Time	R.ASIS			L.ASIS			V.Sacral			R.Thigh.Upper			R.Thigh.Front			R.Thigh.Rear			L.Thigh.Upper			L.Thigh.Front			L.Thigh.Rear			R.Shank.Upper			R.Shank.Front			R.Shank.Rear			L.Shank.Upper			L.Shank.Front			L.Shank.Rear			R.Heel			R.Midfoot.Sup			R.Midfoot.Lat			R.Toe.Tip			L.Heel			L.Midfoot.Sup			L.Midfoot.Lat			L.Toe.Tip			Sternum			R.Acromium			L.Acromium			R.Bicep			L.Bicep			R.Elbow			L.Elbow			R.Wrist.Med			R.Wrist.Lat			L.Wrist.Med			L.Wrist.Lat			R.Toe.Lat			R.Toe.Med			L.Toe.Lat			L.Toe.Med			R.Temple			L.Temple			Top.Head		
		X1	Y1	Z1	X2	Y2	Z2	X3	Y3	Z3	X4	Y4	Z4	X5	Y5	Z5	X6	Y6	Z6	X7	Y7	Z7	X8	Y8	Z8	X9	Y9	Z9	X10	Y10	Z10	X11	Y11	Z11	X12	Y12	Z12	X13	Y13	Z13	X14	Y14	Z14	X15	Y15	Z15	X16	Y16	Z16	X17	Y17	Z17	X18	Y18	Z18	X19	Y19	Z19	X20	Y20	Z20	X21	Y21	Z21	X22	Y22	Z22	X23	Y23	Z23	X24	Y24	Z24	X25	Y25	Z25	X26	Y26	Z26	X27	Y27	Z27	X28	Y28	Z28	X29	Y29	Z29	X30	Y30	Z30	X31	Y31	Z31	X32	Y32	Z32	X33	Y33	Z33	X34	Y34	Z34	X35	Y35	Z35	X36	Y36	Z36	X37	Y37	Z37	X38	Y38	Z38	X39	Y39	Z39	X40	Y40	Z40	X41	Y41	Z41
																																																																																																																												
1	0	617.24762	1055.27502	170.78198	639.60638	1044.25842	-88.90979	430.86984	1051.26465	29.96675	522.738	720.377	211.229	565.036	647.672	115.951	480.102	607.168	197.774	651.604	753.586	-144.235	751.652	751.433	-84.4557	689.827	651.205	-129.597	360.9039	474.04004	186.84929	420.86743	412.36603	134.71933	343.73737	388.03668	189.83162	750.32623	446.17697	-128.52777	819.76385	415.13217	-81.7	750.04584	397.94098	-138.884	156.44276	113.07307	104.00257	297.18088	88.12213	67.0685	288.24664	73.76623	176.63014	429.09286	43.0861	110.59769	815.76416	63.39788	-51.75869	967.98993	122.58054	-32.7704	943.78925	105.3372	-122.34442	1078.70935	143.54796	-60.93587	660.82678	1353.77527	20.19839	566.59839	1449.57959	229.99652	596.42383	1468.96814	-186.70021	593.64148	1249.10791	279.7764	580.73468	1233.74133	-222.92732	567.0025	1143.10925	315.56631	518.10278	1146.32483	-260.95828	771.56329	973.77911	273.7876	746.20697	944.37811	327.45282	619.82306	916.1698	-218.32727	574.16254	905.87732	-276.12146	366.12296	35.90821	193.14078	375.86584	39.8688	81.17185	1022.03961	113.13824	-136.45811	1034.97046	125.07877	-34.93821	736.52234	1571.58154	106.42087	748.242	1574.96411	-31.66723	749.33246	1747.60767	46.74146
2	0.017	617.99811	1053.21753	168.51317	641.23621	1042.27856	-90.93213	432.34061	1050.23743	26.84679	522.159	719.596	209.027	564.043	646.504	113.864	479.216	606.45	196.018	653.737	753.877	-145.909	753.229	752.417	-85.1888	692.417	651.748	-130.723	357.69406	474.35721	187.04623	415.39218	411.81808	134.78728	336.91132	390.05734	190.88017	755.12109	443.93143	-128.7347	820.41974	409.88623	-79.03171	750.56512	396.96808	-137.30786	141.98363	121.29087	105.0378	281.97873	91.63458	68.46623	271.80731	75.74918	177.51051	409.88361	43.13917	110.56359	799.81989	65.80063	-49.9463	957.45166	113.74644	-27.6771	943.78925	105.3372	-122.34442	1069.27661	128.48079	-56.2015	661.32916	1352.70825	17.24357	566.9248	1448.94153	226.13284	596.42023	1466.41492	-191.47711	593.20453	1248.55835	276.04364	582.39642	1230.63843	-225.94514	566.13733	1142.56213	312.59055	519.93042	1142.17285	-262.84161	767.16644	969.57422	272.55261	742.40552	941.01062	325.92441	623.05481	912.31732	-220.41856	576.28583	902.63904	-278.4635	346.24503	35.811	193.41495	358.94989	39.80574	80.93507	1011.08215	101.08356	-132.52734	1024.0022	111.6144	-30.6797	736.04187	1570.83057	101.78574	748.41162	1574.0415	-36.66513	750.67981	1746.67041	41.16423
3	0.033	620.29224	1051.77124	165.85938	643.59692	1041.06079	-94.30722	434.09943	1049.34143	23.81936	522.584	718.989	206.558	563.819	645.399	111.494	479.075	606.003	194.051	655.914	753.929	-148	755.013	753.016	-86.6293	694.854	651.987	-132.235	355.96603	476.07431	187.72906	411.18945	410.48535	135.65497	332.24643	392.03955	191.39008	755.76636	441.96497	-126.80373	821.31488	407.06613	-76.99791	750.77588	396.23285	-136.23216	128.05836	130.38168	106.09202	267.07681	95.34116	69.8791	255.80577	78.12271	178.35294	390.76752	43.10156	110.35046	784.39679	68.05878	-48.83653	946.33325	105.4095	-23.48597	932.77124	97.33627	-120.64327	1059.06396	113.93506	-52.28406	663.19812	1351.78687	13.63107	567.5697	1448.22229	221.82841	596.4621	1463.91785	-196.01938	593.00885	1248.74841	272.54794	585.18445	1227.72607	-228.90501	564.97345	1142.93994	308.37927	523.07452	1139.11279	-266.43765	762.15747	964.9895	271.42297	735.97699	937.31622	324.73819	626.50507	909.22681	-223.19127	579.66229	899.12122	-281.07309	328.92258	34.77872	193.96858	341.75687	39.43059	80.78735	999.31842	89.32551	-129.3242	1012.50629	98.88281	-27.288	736.57086	1570.54224	96.86483	748.85468	1571.8595	-41.94081	751.03967	1746.68018	36.05921
4	0.05	621.54041	1050.55212	163.5325	646.75104	1040.35681	-96.86188	436.27994	1048.70715	20.95202	524.129	718.519	204.158	565.23	644.725	109.195	480.76	605.433	192.081	658.617	754.299	-150.124	757.374	753.837	-88.1991	697.801	652.518	-133.931	356.08667	476.89316	187.23071	409.44373	410.43378	135.6963	329.61075	394.47125	191.91527	758.63446	441.58249	-127.01546	821.66901	405.63815	-75.78609	750.51422	395.89566	-136.1649	115.33288	141.10814	107.07024	252.83902	99.48857	71.28898	240.50905	81.28846	179.09006	371.83502	42.88871	109.90253	769.44598	70.03754	-48.76834	934.09692	97.97519	-20.89774	920.93799	90.00697	-119.47644	1047.43127	100.48981	-49.76516	664.71771	1351.30505	9.24379	568.00946	1448.12561	216.41084	599.00385	1461.87781	-201.06389	592.68207	1249.01611	268.26801	587.17859	1225.28418	-232.17101	562.62689	1143.3822	304.28061	526.08716	1135.98755	-268.87439	756.53687	960.19275	270.02432	729.97375	933.63281	323.82111	629.70233	906.31372	-225.57834	581.97754	895.94104	-283.05914	310.68375	34.73133	194.06519	324.27896	38.87956	80.7644	986.24982	78.3672	-127.32961	999.94592	87.50825	-25.27678	736.53625	1571.20825	92.58109	749.98224	1572.00244	-45.9969	751.06842	1747.01282	30.69887
